# xmcd
#
# Track frame offsets:
#	150
#	15870
#	40745
#	59855
#	73350
#	89870
#	111825
#	126200
#	140730
#	163120
#	181060
#	198115
#	213895
#	233505
#	253275
#
# Disc length: 3589 seconds
#
# Revision: 3
# Processed by: cddbd v1.5.2PL0 Copyright (c) Steve Scherf et al.
# Submitted via: audiograbber 1.83.01
#
DISCID=dd0e030f
DTITLE=Various Artist - MM6037
DYEAR=1900
DGENRE=Karaoke
TTITLE0=Clapton, Eric - Wonderful Tonight
TTITLE1=Vandross, Luther - Here And Now
TTITLE2=Humperdinck, Engelbert - After The Lovin'
TTITLE3=Edwards, Tommy - It's All In The Game
TTITLE4=Joel, Billy - Just The Way You Are
TTITLE5=Streisand, Barbra - We're Not Makin' Love Anymore
TTITLE6=Pitney, Gene - Town Without Pity
TTITLE7=Carr, Vicki - For Once In My Life
TTITLE8=Rogers, Kenny - Through The Years
TTITLE9=Chapin, Harry - Cat's In The Cradle
TTITLE10=Seger, Bob - We've Got Tonight
TTITLE11=Simon, Carly - In The Wee Small Hours Of The Morning
TTITLE12=Righteous Brothers, The - You've Lost That Loving Feeling
TTITLE13=Swayze, Patrick - She's Like The Wind
TTITLE14=Armstrong, Louis - Kiss To Build A Dream On, A
EXTD=
EXTT0=
EXTT1=
EXTT2=
EXTT3=
EXTT4=
EXTT5=
EXTT6=
EXTT7=
EXTT8=
EXTT9=
EXTT10=
EXTT11=
EXTT12=
EXTT13=
EXTT14=
PLAYORDER=
